HIERARCHY
ROOT Hips
{
	OFFSET 0.000000 87.230942 0.000000
	CHANNELS 6 Xposition Yposition Zposition Xrotation Yrotation Zrotation
	JOINT Pelvis
	{
		OFFSET 0.000000 0.000000 0.000000
		CHANNELS 3 Xrotation Yrotation Zrotation
		JOINT LeftUpLeg
		{
			OFFSET 12.017000 -9.376404 -2.439400
			CHANNELS 3 Xrotation Yrotation Zrotation
			JOINT LeftLeg
			{
				OFFSET -0.007312 -32.846973 2.110600
				CHANNELS 3 Xrotation Yrotation Zrotation
				JOINT LeftFoot
				{
					OFFSET 0.007312 -32.065170 -0.570400
					CHANNELS 3 Xrotation Yrotation Zrotation
					JOINT LeftToeBase
					{
						OFFSET 0.728300 -11.045900 13.180700
						CHANNELS 3 Xrotation Yrotation Zrotation
						End Site
						{
							OFFSET 0.000000 17.212589 0.000000
						}
					}
				}
				JOINT LeftPantLeg
				{
					OFFSET 0.002788 -16.709013 -3.143600
					CHANNELS 3 Xrotation Yrotation Zrotation
					End Site
					{
						OFFSET -0.605125 24.528742 0.000000
					}
				}
			}
			JOINT Left_Butt
			{
				OFFSET -6.630234 1.326584 -3.183700
				CHANNELS 3 Xrotation Yrotation Zrotation
				End Site
				{
					OFFSET -0.498041 20.188049 0.000000
				}
			}
		}
		JOINT RightUpLeg
		{
			OFFSET -11.717000 -9.376404 -2.439400
			CHANNELS 3 Xrotation Yrotation Zrotation
			JOINT RightLeg
			{
				OFFSET -0.003241 -32.846912 2.110600
				CHANNELS 3 Xrotation Yrotation Zrotation
				JOINT RightFoot
				{
					OFFSET 0.003241 -32.065136 -0.570500
					CHANNELS 3 Xrotation Yrotation Zrotation
					JOINT RightToeBase
					{
						OFFSET -0.728300 -11.045901 13.180700
						CHANNELS 3 Xrotation Yrotation Zrotation
						End Site
						{
							OFFSET 0.000000 17.212593 0.000000
						}
					}
				}
				JOINT RightPantLeg
				{
					OFFSET 0.008142 -16.708982 -3.143700
					CHANNELS 3 Xrotation Yrotation Zrotation
					End Site
					{
						OFFSET 0.605088 24.528715 0.000000
					}
				}
			}
			JOINT Right_Butt
			{
				OFFSET 6.630732 1.326584 -3.183700
				CHANNELS 3 Xrotation Yrotation Zrotation
				End Site
				{
					OFFSET 0.498015 20.188240 0.000000
				}
			}
		}
	}
	JOINT Spine
	{
		OFFSET -0.062400 7.848404 3.918300
		CHANNELS 3 Xrotation Yrotation Zrotation
		JOINT Spine1
		{
			OFFSET -0.072800 11.422302 0.713400
			CHANNELS 3 Xrotation Yrotation Zrotation
			JOINT Spine2
			{
				OFFSET -0.083200 13.054001 -1.931600
				CHANNELS 3 Xrotation Yrotation Zrotation
				JOINT Neck
				{
					OFFSET -0.092200 14.121796 -5.138800
					CHANNELS 3 Xrotation Yrotation Zrotation
					JOINT Head
					{
						OFFSET 0.000200 10.447403 -0.842000
						CHANNELS 3 Xrotation Yrotation Zrotation
						JOINT Visor
						{
							OFFSET 0.457100 25.671204 16.550400
							CHANNELS 3 Xrotation Yrotation Zrotation
							End Site
							{
								OFFSET 0.000000 26.061493 0.000000
							}
						}
						JOINT HairMidA
						{
							OFFSET 0.459400 31.585403 8.437400
							CHANNELS 3 Xrotation Yrotation Zrotation
							End Site
							{
								OFFSET 0.000000 26.061493 0.000000
							}
						}
						JOINT HairMidB
						{
							OFFSET 0.464000 33.309204 -8.389700
							CHANNELS 3 Xrotation Yrotation Zrotation
							End Site
							{
								OFFSET 0.000000 26.061493 0.000000
							}
						}
						JOINT HairMidC
						{
							OFFSET 0.466600 27.991196 -17.375099
							CHANNELS 3 Xrotation Yrotation Zrotation
							End Site
							{
								OFFSET 0.000000 26.061493 0.000000
							}
						}
						JOINT HairMidD
						{
							OFFSET 0.467700 17.888092 -21.169500
							CHANNELS 3 Xrotation Yrotation Zrotation
							End Site
							{
								OFFSET 0.000000 26.061493 0.000000
							}
						}
						JOINT HairMidE
						{
							OFFSET 5.325700 3.514603 -14.369699
							CHANNELS 3 Xrotation Yrotation Zrotation
							End Site
							{
								OFFSET 0.000000 26.061493 0.000000
							}
						}
						JOINT HairMidF
						{
							OFFSET -4.394100 3.514603 -14.372400
							CHANNELS 3 Xrotation Yrotation Zrotation
							End Site
							{
								OFFSET 0.000000 26.061493 0.000000
							}
						}
						JOINT HairLeftA
						{
							OFFSET 15.319900 25.746506 2.623300
							CHANNELS 3 Xrotation Yrotation Zrotation
							End Site
							{
								OFFSET 0.000000 26.061493 0.000000
							}
						}
						JOINT HairLeftB
						{
							OFFSET 12.619500 29.289398 -8.731499
							CHANNELS 3 Xrotation Yrotation Zrotation
							End Site
							{
								OFFSET 0.000000 26.061493 0.000000
							}
						}
						JOINT HairLeftC
						{
							OFFSET 15.714800 15.959900 2.909800
							CHANNELS 3 Xrotation Yrotation Zrotation
							End Site
							{
								OFFSET 0.000000 26.061493 0.000000
							}
						}
						JOINT HairLeftD
						{
							OFFSET 16.101700 18.437408 -7.553200
							CHANNELS 3 Xrotation Yrotation Zrotation
							End Site
							{
								OFFSET 0.000000 26.061493 0.000000
							}
						}
						JOINT HairLeftE
						{
							OFFSET 9.731900 17.915009 -18.316799
							CHANNELS 3 Xrotation Yrotation Zrotation
							End Site
							{
								OFFSET 0.000000 26.061493 0.000000
							}
						}
						JOINT HairLeftF
						{
							OFFSET 11.204300 4.953598 -9.668100
							CHANNELS 3 Xrotation Yrotation Zrotation
							End Site
							{
								OFFSET 0.000000 26.061493 0.000000
							}
						}
						JOINT HairRightA
						{
							OFFSET -14.397900 25.746307 2.615100
							CHANNELS 3 Xrotation Yrotation Zrotation
							End Site
							{
								OFFSET 0.000000 26.061493 0.000000
							}
						}
						JOINT HairRightB
						{
							OFFSET -11.691200 29.289200 -8.738199
							CHANNELS 3 Xrotation Yrotation Zrotation
							End Site
							{
								OFFSET 0.000000 26.061493 0.000000
							}
						}
						JOINT HairRightC
						{
							OFFSET -14.792900 15.959702 2.901400
							CHANNELS 3 Xrotation Yrotation Zrotation
							End Site
							{
								OFFSET 0.000000 26.061493 0.000000
							}
						}
						JOINT HairRightD
						{
							OFFSET -15.174000 18.437195 -7.561900
							CHANNELS 3 Xrotation Yrotation Zrotation
							End Site
							{
								OFFSET 0.000000 26.061493 0.000000
							}
						}
						JOINT HairRightE
						{
							OFFSET -8.798200 17.914902 -18.322001
							CHANNELS 3 Xrotation Yrotation Zrotation
							End Site
							{
								OFFSET 0.000000 26.061493 0.000000
							}
						}
						JOINT HairRightF
						{
							OFFSET -10.275200 4.953506 -9.674099
							CHANNELS 3 Xrotation Yrotation Zrotation
							End Site
							{
								OFFSET 0.000000 26.061493 0.000000
							}
						}
					}
				}
				JOINT LeftShoulder
				{
					OFFSET 5.133500 7.341202 -1.867600
					CHANNELS 3 Xrotation Yrotation Zrotation
					JOINT LeftArm
					{
						OFFSET 8.072663 0.936867 -2.176600
						CHANNELS 3 Xrotation Yrotation Zrotation
						JOINT LeftForeArm
						{
							OFFSET 31.271999 0.000000 0.000000
							CHANNELS 3 Xrotation Yrotation Zrotation
							JOINT LeftHand
							{
								OFFSET 31.771030 0.000000 0.000000
								CHANNELS 3 Xrotation Yrotation Zrotation
								JOINT LeftHandThumb1
								{
									OFFSET 2.886520 -2.557846 4.416640
									CHANNELS 3 Xrotation Yrotation Zrotation
									JOINT LeftHandThumb2
									{
										OFFSET 2.371025 -1.368912 1.368911
										CHANNELS 3 Xrotation Yrotation Zrotation
										JOINT LeftHandThumb3
										{
											OFFSET 2.243378 -1.295212 1.295213
											CHANNELS 3 Xrotation Yrotation Zrotation
											End Site
											{
												OFFSET -0.332611 2.876945 0.020015
											}
										}
									}
								}
								JOINT LeftHandIndex1
								{
									OFFSET 8.568985 -0.641945 3.119977
									CHANNELS 3 Xrotation Yrotation Zrotation
									JOINT LeftHandIndex2
									{
										OFFSET 3.348503 0.000000 0.000000
										CHANNELS 3 Xrotation Yrotation Zrotation
										JOINT LeftHandIndex3
										{
											OFFSET 3.314552 0.000000 0.000000
											CHANNELS 3 Xrotation Yrotation Zrotation
											End Site
											{
												OFFSET -1.032898 3.075485 0.678796
											}
										}
									}
								}
								JOINT LeftHandMiddle1
								{
									OFFSET 8.124603 0.000000 0.000000
									CHANNELS 3 Xrotation Yrotation Zrotation
									JOINT LeftHandMiddle2
									{
										OFFSET 4.166275 0.000000 0.000000
										CHANNELS 3 Xrotation Yrotation Zrotation
										JOINT LeftHandMiddle3
										{
											OFFSET 3.018135 0.000000 0.000000
											CHANNELS 3 Xrotation Yrotation Zrotation
											End Site
											{
												OFFSET -1.032700 2.767982 0.617226
											}
										}
									}
								}
								JOINT LeftHandRing1
								{
									OFFSET 8.571686 -0.031357 -2.884048
									CHANNELS 3 Xrotation Yrotation Zrotation
									JOINT LeftHandRing2
									{
										OFFSET 3.671181 0.000000 0.000000
										CHANNELS 3 Xrotation Yrotation Zrotation
										JOINT LeftHandRing3
										{
											OFFSET 2.728851 0.000000 0.000000
											CHANNELS 3 Xrotation Yrotation Zrotation
											End Site
											{
												OFFSET -0.815796 2.539223 0.577389
											}
										}
									}
								}
								JOINT LeftHandPinky1
								{
									OFFSET 7.854515 -0.675232 -5.213020
									CHANNELS 3 Xrotation Yrotation Zrotation
									JOINT LeftHandPinky2
									{
										OFFSET 3.068596 0.000000 0.000000
										CHANNELS 3 Xrotation Yrotation Zrotation
										JOINT LeftHandPinky3
										{
											OFFSET 2.396042 0.000000 0.000000
											CHANNELS 3 Xrotation Yrotation Zrotation
											End Site
											{
												OFFSET -0.524597 2.267998 0.567429
											}
										}
									}
								}
							}
							JOINT LeftSleeve
							{
								OFFSET 19.684509 -0.200119 0.476146
								CHANNELS 3 Xrotation Yrotation Zrotation
								End Site
								{
									OFFSET -0.031017 25.731133 -0.002868
								}
							}
						}
					}
				}
				JOINT RightShoulder
				{
					OFFSET -4.395900 7.341202 -1.870200
					CHANNELS 3 Xrotation Yrotation Zrotation
					JOINT RightArm
					{
						OFFSET -8.071453 0.936867 -2.181100
						CHANNELS 3 Xrotation Yrotation Zrotation
						JOINT RightForeArm
						{
							OFFSET -31.272011 0.000000 0.000000
							CHANNELS 3 Xrotation Yrotation Zrotation
							JOINT RightHand
							{
								OFFSET -31.771019 0.000000 0.000000
								CHANNELS 3 Xrotation Yrotation Zrotation
								JOINT RightHandThumb1
								{
									OFFSET -2.886520 -2.557808 4.416626
									CHANNELS 3 Xrotation Yrotation Zrotation
									JOINT RightHandThumb2
									{
										OFFSET -2.371056 -1.368927 1.368928
										CHANNELS 3 Xrotation Yrotation Zrotation
										JOINT RightHandThumb3
										{
											OFFSET -2.243362 -1.295204 1.295206
											CHANNELS 3 Xrotation Yrotation Zrotation
											End Site
											{
												OFFSET 0.332642 2.876938 0.020047
											}
										}
									}
								}
								JOINT RightHandIndex1
								{
									OFFSET -8.568993 -0.641953 3.120017
									CHANNELS 3 Xrotation Yrotation Zrotation
									JOINT RightHandIndex2
									{
										OFFSET -3.348518 0.000000 0.000000
										CHANNELS 3 Xrotation Yrotation Zrotation
										JOINT RightHandIndex3
										{
											OFFSET -3.314552 0.000000 0.000000
											CHANNELS 3 Xrotation Yrotation Zrotation
											End Site
											{
												OFFSET 1.032898 3.075478 0.678804
											}
										}
									}
								}
								JOINT RightHandMiddle1
								{
									OFFSET -8.124588 0.000000 0.000000
									CHANNELS 3 Xrotation Yrotation Zrotation
									JOINT RightHandMiddle2
									{
										OFFSET -4.166275 0.000000 0.000000
										CHANNELS 3 Xrotation Yrotation Zrotation
										JOINT RightHandMiddle3
										{
											OFFSET -3.018097 0.000000 0.000000
											CHANNELS 3 Xrotation Yrotation Zrotation
											End Site
											{
												OFFSET 1.032700 2.767937 0.617197
											}
										}
									}
								}
								JOINT RightHandRing1
								{
									OFFSET -8.571747 -0.031349 -2.884061
									CHANNELS 3 Xrotation Yrotation Zrotation
									JOINT RightHandRing2
									{
										OFFSET -3.671204 0.000000 0.000000
										CHANNELS 3 Xrotation Yrotation Zrotation
										JOINT RightHandRing3
										{
											OFFSET -2.728874 0.000000 0.000000
											CHANNELS 3 Xrotation Yrotation Zrotation
											End Site
											{
												OFFSET 0.815804 2.539261 0.577413
											}
										}
									}
								}
								JOINT RightHandPinky1
								{
									OFFSET -7.854561 -0.675247 -5.212970
									CHANNELS 3 Xrotation Yrotation Zrotation
									JOINT RightHandPinky2
									{
										OFFSET -3.068550 0.000000 0.000000
										CHANNELS 3 Xrotation Yrotation Zrotation
										JOINT RightHandPinky3
										{
											OFFSET -2.395981 0.000000 0.000000
											CHANNELS 3 Xrotation Yrotation Zrotation
											End Site
											{
												OFFSET 0.524605 2.267952 0.567413
											}
										}
									}
								}
							}
							JOINT RightSleeve
							{
								OFFSET -19.684753 -0.200165 0.476065
								CHANNELS 3 Xrotation Yrotation Zrotation
								End Site
								{
									OFFSET 0.031342 25.731255 -0.002917
								}
							}
						}
					}
				}
				JOINT Hood
				{
					OFFSET 0.369700 14.447800 -5.317800
					CHANNELS 3 Xrotation Yrotation Zrotation
					JOINT Hood1
					{
						OFFSET 0.001700 -5.553802 -5.895100
						CHANNELS 3 Xrotation Yrotation Zrotation
						JOINT Hood2
						{
							OFFSET -0.000200 -8.380501 0.763600
							CHANNELS 3 Xrotation Yrotation Zrotation
							End Site
							{
								OFFSET 0.000000 8.415215 0.000000
							}
						}
					}
				}
				JOINT Left_Breast
				{
					OFFSET 5.682500 3.120102 3.188800
					CHANNELS 3 Xrotation Yrotation Zrotation
					End Site
					{
						OFFSET 0.000000 10.528564 0.000000
					}
				}
				JOINT Right_Breast
				{
					OFFSET -4.947600 3.120102 3.185900
					CHANNELS 3 Xrotation Yrotation Zrotation
					End Site
					{
						OFFSET 0.000000 10.528564 0.000000
					}
				}
				JOINT Whistle
				{
					OFFSET 0.368200 11.471298 0.095400
					CHANNELS 3 Xrotation Yrotation Zrotation
					JOINT Whistle1
					{
						OFFSET -0.002000 -6.349899 7.479800
						CHANNELS 3 Xrotation Yrotation Zrotation
						JOINT Whistle2
						{
							OFFSET -0.001300 -8.217598 4.717600
							CHANNELS 3 Xrotation Yrotation Zrotation
							End Site
							{
								OFFSET 0.000000 9.475479 0.000000
							}
						}
					}
				}
			}
		}
		JOINT Belly
		{
			OFFSET 0.212400 1.593002 3.163700
			CHANNELS 3 Xrotation Yrotation Zrotation
			End Site
			{
				OFFSET 0.000000 7.496635 0.000000
			}
		}
	}
	JOINT FitGrandmaFacialAnim_Joint
	{
		OFFSET 1.150000 -86.211197 -1.220100
		CHANNELS 3 Xrotation Yrotation Zrotation
		End Site
		{
			OFFSET 0.000000 31.666618 0.000000
		}
	}
}
MOTION
Frames: 4
Frame Time: 0.016667
2.416497 46.982925 -1.373103 0.950355 -28.359692 8.271463 -0.000000 0.000000 0.000001 -76.298226 -10.676981 46.013226 79.037679 8.439406 -5.807982 17.144931 0.856802 -12.651054 0.000000 -0.000001 0.000000 0.000002 0.000002 0.000003 -0.000000 -0.000001 -0.000001 -16.831814 -1.500026 -19.351896 112.129897 10.249220 -0.486931 14.738725 1.623753 19.223916 -0.000000 -0.000001 -0.000004 -0.000000 0.000000 0.000000 0.000000 0.000004 0.000002 3.632170 -6.290508 -3.573083 2.855675 -4.198787 -2.072991 2.773303 -4.260252 -2.035174 0.447421 2.821353 2.164897 0.278335 15.546817 4.247279 0.000000 -0.000000 0.000000 0.000000 -0.000000 0.000000 0.000000 -0.000000 0.000000 0.000000 -0.000000 0.000000 0.000000 -0.000000 0.000000 0.000000 -0.000000 0.000000 0.000000 -0.000000 0.000000 0.000000 -0.000000 0.000000 0.000000 -0.000000 0.000000 0.000000 -0.000000 0.000000 0.000000 -0.000000 0.000000 0.000000 -0.000000 0.000000 0.000000 -0.000000 0.000000 0.000000 -0.000000 0.000000 0.000000 -0.000000 0.000000 0.000000 -0.000000 0.000000 0.000000 -0.000000 0.000000 0.000000 -0.000000 0.000000 0.000000 -0.000000 0.000000 1.530512 -0.690794 -2.366975 -3.234546 -12.111230 -50.675366 0.000359 -87.973274 0.000527 -53.085077 20.313635 41.451875 -1.540056 3.690189 6.142345 3.939059 7.948712 0.746809 -0.000001 0.000001 0.000000 1.016525 3.605835 -31.478716 1.016535 3.605823 -31.478699 0.000001 -0.000001 -0.000003 1.299288 4.030452 -35.722880 1.301540 4.033578 -35.755009 -0.000001 -0.000003 -0.000004 1.751603 4.592905 -41.733699 1.751618 4.592907 -41.733692 -0.000001 -0.000000 0.000002 4.911436 7.752519 -44.887884 2.046402 0.814384 -45.446972 -0.000001 -0.000001 0.000001 0.000000 -0.000002 -0.000001 5.585476 17.928710 2.373358 -33.414675 -16.065404 41.084643 -0.004139 92.810338 0.004087 44.885377 -28.255036 9.382486 -1.849239 -3.581782 -6.586144 4.637186 -8.634135 -0.225404 0.000001 0.000001 0.000000 0.081186 -1.061617 8.746199 0.001255 -0.132360 1.086263 -0.000001 -0.000002 0.000003 0.493228 -2.576618 21.670006 0.002550 -0.188677 1.548415 -0.000002 -0.000001 -0.000002 0.682835 -3.009790 25.559237 0.002550 -0.188679 1.548416 -0.000001 -0.000001 0.000001 1.013759 -3.620348 31.277130 0.002547 -0.188684 1.548420 -0.000003 -0.000001 0.000001 -0.000000 -0.000005 -0.000004 0.000001 0.000003 -0.000001 0.000001 0.000003 -0.000001 0.000001 0.000003 -0.000001 0.000001 0.000003 -0.000001 0.000001 0.000003 -0.000001 0.000001 0.000003 0.000000 0.000001 0.000001 -0.000000 0.000001 0.000001 -0.000000 0.000000 -0.000002 0.000000 -0.000000 0.000000 0.000001 
2.386285 46.983528 -1.376451 1.012350 -28.365769 8.332606 -0.000000 -0.000001 -0.000001 -76.308916 -10.615438 46.090936 78.966139 8.423377 -5.865974 17.202195 0.926667 -12.619136 -0.000000 -0.000000 -0.000000 -0.000002 -0.000002 0.000002 0.000001 -0.000002 -0.000001 -16.928468 -1.477742 -19.310897 112.177627 10.221243 -0.485045 14.663607 1.598742 19.091140 0.000002 -0.000001 -0.000004 0.000000 0.000000 0.000001 0.000001 0.000002 0.000000 3.625182 -6.233643 -3.703512 2.844912 -4.152769 -2.149812 2.768603 -4.212001 -2.111296 0.463156 2.837760 2.357655 0.012648 15.814938 4.562045 0.000000 -0.000000 0.000000 0.000000 -0.000000 0.000000 0.000000 -0.000000 0.000000 0.000000 -0.000000 0.000000 0.000000 -0.000000 0.000000 0.000000 -0.000000 0.000000 0.000000 -0.000000 0.000000 0.000000 -0.000000 0.000000 0.000000 -0.000000 0.000000 0.000000 -0.000000 0.000000 0.000000 -0.000000 0.000000 0.000000 -0.000000 0.000000 0.000000 -0.000000 0.000000 0.000000 -0.000000 0.000000 0.000000 -0.000000 0.000000 0.000000 -0.000000 0.000000 0.000000 -0.000000 0.000000 0.000000 -0.000000 0.000000 0.000000 -0.000000 0.000000 1.530166 -0.744395 -1.917308 -3.271991 -12.105437 -51.033036 0.000108 -88.077352 0.000233 -52.890075 20.116184 41.398726 -1.540053 3.690185 6.142349 3.939055 7.948715 0.746807 -0.000000 -0.000004 0.000002 1.016523 3.605836 -31.478720 1.016535 3.605825 -31.478699 0.000000 0.000002 -0.000001 1.299288 4.030449 -35.722880 1.301543 4.033578 -35.755009 -0.000001 -0.000003 -0.000000 1.751605 4.592902 -41.733699 1.751620 4.592912 -41.733692 -0.000001 0.000001 0.000001 4.911437 7.752518 -44.887873 2.046401 0.814386 -45.446972 -0.000004 -0.000001 0.000001 -0.000002 -0.000001 -0.000002 5.560242 17.956434 2.651593 -32.494430 -15.150560 39.610292 -0.000632 94.692834 0.000629 40.622092 -28.211617 8.823208 -1.849240 -3.581782 -6.586145 4.637187 -8.634131 -0.225404 0.000000 -0.000001 0.000000 0.081137 -1.061260 8.743212 0.000147 -0.046004 0.377551 -0.000001 0.000001 0.000002 0.505642 -2.607615 21.944573 0.000308 -0.065746 0.539484 0.000000 0.000002 -0.000001 0.699981 -3.045338 25.883922 0.000310 -0.065740 0.539485 -0.000000 0.000002 -0.000000 1.039069 -3.661608 31.675658 0.000312 -0.065743 0.539488 -0.000000 0.000001 0.000001 -0.000003 -0.000002 -0.000004 0.000000 0.000001 0.000000 0.000000 0.000001 0.000000 0.000000 0.000001 0.000000 0.000000 0.000001 0.000000 0.000000 0.000001 0.000000 0.000000 0.000001 0.000000 0.000001 -0.000001 0.000000 0.000001 -0.000001 0.000000 -0.000000 -0.000000 0.000000 -0.000000 -0.000001 -0.000001 
2.353914 46.982452 -1.380132 1.079548 -28.364862 8.403879 0.000000 0.000000 -0.000000 -76.329673 -10.544111 46.162073 78.894969 8.414155 -5.923863 17.252102 0.964769 -12.581819 -0.000000 0.000002 -0.000000 0.000001 -0.000002 -0.000003 0.000000 -0.000003 0.000003 -17.023490 -1.461953 -19.279413 112.217638 10.206421 -0.484611 14.607466 1.579494 18.985701 0.000001 -0.000001 -0.000002 -0.000000 -0.000000 -0.000002 0.000002 -0.000002 -0.000002 3.611943 -6.185630 -3.833010 2.829096 -4.112361 -2.227856 2.758119 -4.169719 -2.188756 0.482739 2.858638 2.531981 -0.284937 16.079336 4.861552 0.000001 -0.000002 0.000001 0.000001 -0.000002 0.000001 0.000001 -0.000002 0.000001 0.000001 -0.000002 0.000001 0.000001 -0.000002 0.000001 0.000001 -0.000002 0.000001 0.000001 -0.000002 0.000001 0.000001 -0.000002 0.000001 0.000001 -0.000002 0.000001 0.000001 -0.000002 0.000001 0.000001 -0.000002 0.000001 0.000001 -0.000002 0.000001 0.000001 -0.000002 0.000001 0.000001 -0.000002 0.000001 0.000001 -0.000002 0.000001 0.000001 -0.000002 0.000001 0.000001 -0.000002 0.000001 0.000001 -0.000002 0.000001 0.000001 -0.000002 0.000001 1.512198 -0.744088 -1.544892 -3.279714 -12.155372 -51.329845 -0.003418 -88.114194 -0.003391 -52.731611 19.892643 41.299176 -1.540055 3.690186 6.142351 3.939058 7.948718 0.746808 -0.000000 0.000002 0.000000 1.016525 3.605831 -31.478716 1.016536 3.605829 -31.478699 0.000001 -0.000001 -0.000001 1.299289 4.030447 -35.722876 1.301539 4.033576 -35.755002 0.000001 -0.000000 0.000000 1.751603 4.592898 -41.733692 1.751617 4.592910 -41.733692 -0.000001 0.000001 -0.000001 4.911438 7.752519 -44.887880 2.046396 0.814382 -45.446969 -0.000001 0.000000 0.000003 -0.000001 0.000001 0.000001 5.540488 17.992967 2.918230 -31.912918 -14.467700 38.297649 0.001055 96.455242 -0.001063 36.803112 -27.544602 9.079544 -1.849240 -3.581781 -6.586143 4.637187 -8.634129 -0.225403 -0.000002 -0.000000 0.000000 0.081078 -1.060904 8.740250 -0.000001 -0.003752 0.030856 0.000000 -0.000000 0.000003 0.514998 -2.630686 22.149270 -0.000002 -0.003847 0.031510 0.000000 -0.000000 -0.000002 0.712893 -3.071770 26.125994 -0.000000 -0.003850 0.031512 -0.000001 0.000000 -0.000001 1.058118 -3.692242 31.972768 0.000004 -0.003835 0.031526 -0.000001 0.000000 -0.000001 0.000001 0.000002 0.000001 0.000001 0.000000 -0.000000 0.000001 0.000000 -0.000000 0.000001 0.000000 -0.000000 0.000001 0.000000 -0.000000 0.000001 0.000000 -0.000000 0.000001 0.000000 -0.000000 0.000001 0.000000 -0.000001 0.000001 0.000000 -0.000001 -0.000000 -0.000001 -0.000000 0.000000 0.000000 -0.000000 
2.318644 46.980782 -1.384286 1.145150 -28.350133 8.476231 0.000000 0.000000 0.000001 -76.347424 -10.477853 46.225730 78.823170 8.411890 -5.993984 17.296151 0.968156 -12.540056 -0.000000 -0.000001 0.000000 0.000003 0.000000 -0.000001 -0.000000 -0.000001 -0.000000 -17.106222 -1.465423 -19.252367 112.241899 10.196386 -0.487946 14.576918 1.567353 18.911984 -0.000000 -0.000001 -0.000004 -0.000000 -0.000000 -0.000004 0.000001 0.000000 -0.000001 3.595088 -6.149881 -3.960822 2.810493 -4.080796 -2.306021 2.744169 -4.136567 -2.266375 0.495813 2.875331 2.696921 -0.557783 16.320419 5.115392 -0.000000 -0.000001 0.000002 -0.000000 -0.000001 0.000002 -0.000000 -0.000001 0.000002 -0.000000 -0.000001 0.000002 -0.000000 -0.000001 0.000002 -0.000000 -0.000001 0.000002 -0.000000 -0.000001 0.000002 -0.000000 -0.000001 0.000002 -0.000000 -0.000001 0.000002 -0.000000 -0.000001 0.000002 -0.000000 -0.000001 0.000002 -0.000000 -0.000001 0.000002 -0.000000 -0.000001 0.000002 -0.000000 -0.000001 0.000002 -0.000000 -0.000001 0.000002 -0.000000 -0.000001 0.000002 -0.000000 -0.000001 0.000002 -0.000000 -0.000001 0.000002 -0.000000 -0.000001 0.000002 1.480362 -0.701477 -1.238070 -3.264501 -12.231482 -51.554329 -0.000183 -88.164826 -0.000002 -52.644083 19.692583 41.206156 -1.540053 3.690180 6.142346 3.939056 7.948717 0.746808 -0.000000 -0.000003 0.000001 1.016524 3.605832 -31.478716 1.016543 3.605826 -31.478699 0.000001 0.000000 -0.000003 1.299289 4.030449 -35.722876 1.301540 4.033578 -35.755009 -0.000001 -0.000002 0.000000 1.751602 4.592903 -41.733692 1.751620 4.592906 -41.733682 -0.000001 0.000000 0.000000 4.911440 7.752519 -44.887877 2.046397 0.814376 -45.446965 -0.000000 0.000001 0.000001 0.000000 -0.000002 -0.000002 5.526705 18.040671 3.182614 -31.850934 -14.060289 37.299554 -0.000413 98.091693 0.000452 34.080274 -26.275746 10.628212 -1.849239 -3.581783 -6.586145 4.637185 -8.634128 -0.225403 0.000002 -0.000000 0.000000 0.081027 -1.060566 8.737479 0.000001 0.003391 -0.000036 -0.000001 0.000001 -0.000000 0.521049 -2.645484 22.280716 0.000005 0.008580 0.000024 0.000000 0.000003 -0.000001 0.721248 -3.088733 26.281444 0.000006 0.008573 0.000061 -0.000000 -0.000003 0.000001 1.070441 -3.711867 32.163576 0.000004 0.008578 -0.000103 -0.000002 -0.000002 -0.000002 -0.000003 -0.000001 -0.000001 0.000000 0.000002 -0.000000 0.000000 0.000002 -0.000000 0.000000 0.000002 -0.000000 0.000000 0.000002 -0.000000 0.000000 0.000002 -0.000000 0.000000 0.000002 -0.000000 0.000000 0.000000 -0.000000 0.000000 0.000000 -0.000000 0.000000 -0.000000 -0.000000 0.000000 0.000000 0.000001 
